Coordinates
version=1
nRows=17
nColumns=24
inDegrees=yes

Units are S.I. units (second, meters, Newtons, ...)
Angles are in degrees.

endheader
time	pelvis_tilt	pelvis_list	pelvis_rotation	pelvis_tx	pelvis_ty	pelvis_tz	hip_flexion_r	hip_adduction_r	hip_rotation_r	knee_angle_r	ankle_angle_r	subtalar_angle_r	mtp_angle_r	hip_flexion_l	hip_adduction_l	hip_rotation_l	knee_angle_l	ankle_angle_l	subtalar_angle_l	mtp_angle_l	lumbar_extension	lumbar_bending	lumbar_rotation
      1.19616667	     -2.02364032	     -3.39314605	    -13.49083163	     -0.03831956	      0.87382383	      0.35464036	    -18.12934174	      4.97479105	      5.85624554	     -9.89381116	     20.05484147	     12.82171247	      8.36920608	     29.78031624	     -8.96806884	    -14.46302299	     -3.11260705	      6.60083598	     -2.90728196	     -0.69416347	     -5.79773261	      5.39535716	     12.94869762
      1.20033333	     -2.10703640	     -3.29940626	    -13.58472081	     -0.03263045	      0.87291483	      0.35457354	    -18.15661677	      4.78556838	      5.85649450	    -10.38811455	     19.97701808	     12.85802456	      8.62444064	     29.97505618	     -8.93114861	    -14.50551181	     -3.74610501	      6.62969265	     -2.94967921	     -0.68922689	     -5.66725831	      5.19492031	     13.02801720
      1.20450000	     -2.12871456	     -3.19837151	    -13.65135044	     -0.02684203	      0.87214136	      0.35445706	    -18.26280242	      4.57706176	      5.83608797	    -10.85324328	     19.81853801	     12.82262614	      8.75312178	     30.08049954	     -8.85432442	    -14.53552810	     -4.37511391	      6.59008111	     -3.07661991	     -0.68227462	     -5.58471375	      4.99089153	     13.06013852
      1.20866667	     -2.25150566	     -3.08763426	    -13.72211886	     -0.02107990	      0.87124445	      0.35432952	    -18.21100099	      4.38688147	      5.84866924	    -11.41847093	     19.69801619	     12.86347439	      9.04621003	     30.31390904	     -8.79285476	    -14.52742798	     -5.07777689	      6.53065764	     -3.15629848	     -0.65339214	     -5.40993247	      4.76182011	     13.12783908
      1.21283333	     -2.26719105	     -2.96744254	    -13.77485691	     -0.01521095	      0.87055741	      0.35414720	    -18.28183836	      4.15388856	      5.79980623	    -11.94784473	     19.42174178	     12.86398044	     13.35942454	     30.40972337	     -8.68570678	    -14.57453789	     -5.77323692	      6.39090958	     -3.29234223	     -0.06573540	     -5.33920062	      4.52639393	     13.15523569
      1.21700000	     -2.33827114	     -2.84955800	    -13.78430701	     -0.00929808	      0.86981541	      0.35392655	    -18.29422115	      3.95903988	      5.76709216	    -12.49114961	     19.16685420	     12.80459141	     13.40822525	     30.56668253	     -8.56500431	    -14.51436953	     -6.47950226	      6.21157104	     -3.49500110	     -0.04815725	     -5.19603978	      4.29201988	     13.16445011
      1.22116667	     -2.40293230	     -2.71753335	    -13.79728410	     -0.00335371	      0.86913503	      0.35365712	    -18.27926433	      3.74167401	      5.72375518	    -13.09541537	     18.90869825	     12.78594967	     13.54678683	     30.70455487	     -8.42075855	    -14.45605973	     -7.18430455	      5.96899074	     -3.75888859	     -0.00586736	     -5.05618511	      4.04605264	     13.15746566
      1.22533333	     -2.46764876	     -2.57413553	    -13.79124379	      0.00264756	      0.86849574	      0.35335429	    -18.24927514	      3.51752876	      5.66392805	    -13.72474019	     18.60878928	     12.75847787	     13.78616700	     30.83438627	     -8.24932644	    -14.37383940	     -7.88385317	      5.65837070	     -4.08318335	      0.06277096	     -4.90861325	      3.78079876	     13.12505068
      1.22950000	     -2.49083225	     -2.39915063	    -13.74355147	      0.00876160	      0.86795076	      0.35295763	    -18.26264559	      3.25115433	      5.51357661	    -14.33795315	     18.21949354	     12.79702025	     14.81463862	     30.89124018	     -7.99301336	    -14.18810979	     -8.51775290	      5.30551577	     -4.61667318	      0.35902512	     -4.78492105	      3.46035412	     13.07528092
      1.23366667	     -2.51253975	     -2.24204089	    -13.71823110	      0.01486851	      0.86748214	      0.35260488	    -18.25409071	      3.00777423	      5.45803028	    -15.00485313	     17.78528909	     12.65451000	     14.89155596	     30.97382514	     -7.79530166	    -14.23120657	     -9.24425733	      4.93190722	     -4.74726628	      0.37658507	     -4.67840624	      3.18432904	     13.03955453
      1.23783333	     -2.63300414	     -2.06979821	    -13.67175570	      0.02097987	      0.86690215	      0.35219710	    -18.10413776	      2.78160826	      5.40469463	    -15.73431864	     17.35513535	     12.59810827	     15.14539742	     31.15710992	     -7.57116704	    -14.09987794	     -9.94113827	      4.47578969	     -5.11546670	      0.43858747	     -4.44825539	      2.87228160	     12.93947903
      1.24200000	     -2.62481867	     -1.85630194	    -13.61604124	      0.02718887	      0.86655838	      0.35171235	    -18.06484108	      2.46590234	      5.24428813	    -16.48606979	     16.83709550	     12.54179616	     19.19296617	     31.16243391	     -7.25271938	    -13.98398238	    -10.55517075	      3.96278245	     -5.72894587	      1.47513084	     -4.36773980	      2.51411323	     12.85333526
      1.24616667	     -2.73084064	     -1.71038364	    -13.49060125	      0.03337625	      0.86606742	      0.35116368	    -17.91394050	      2.28294342	      5.10446703	    -17.25193269	     16.27533242	     12.46504087	     19.29479093	     31.36684734	     -7.01511748	    -13.81882318	    -11.32545219	      3.50167703	     -6.04651832	      1.50410139	     -4.15796709	      2.27587999	     12.73481550
      1.25033333	     -2.79859733	     -1.51460378	    -13.37878276	      0.03962222	      0.86569562	      0.35059606	    -17.76136236	      2.02855018	      4.94449990	    -18.07723764	     15.71056575	     12.40739234	     19.50659844	     31.49012343	     -6.70789520	    -13.65252593	    -12.01179487	      2.98416155	     -6.52293743	      1.55031588	     -3.98127830	      1.95365646	     12.59211901
      1.25450000	     -2.84475587	     -1.30405030	    -13.25205053	      0.04595253	      0.86540920	      0.35001681	    -17.62975277	      1.75635529	      4.77783592	    -18.89033354	     15.01304774	     12.33441175	     19.65790744	     31.59111928	     -6.38334997	    -13.54752017	    -12.71330759	      2.55794159	     -6.80466815	      1.57873639	     -3.81897943	      1.58373880	     12.50028420
      1.25866667	     -2.93274067	     -1.10697549	    -13.10378550	      0.05220205	      0.86507825	      0.34933439	    -17.38443588	      1.51041916	      4.55686041	    -19.84526300	     14.43786293	     12.30629815	     20.08783182	     31.74798108	     -6.04666022	    -13.28889628	    -13.41524997	      2.01459624	     -7.45396616	      1.65132598	     -3.63025391	      1.29478153	     12.29189384
      1.26283333	     -2.94749062	     -0.87370406	    -12.93939438	      0.05859544	      0.86491598	      0.34864394	    -17.22588293	      1.20352412	      4.28391021	    -20.74398937	     13.60105820	     12.23012180	     24.87766726	     31.81226446	     -5.66168671	    -13.12875781	    -14.10693899	      1.59797666	     -7.84956575	      2.46499106	     -3.50229536	      0.90521696	     12.19655357
